<?xml version="1.0" encoding="UTF-8" standalone="no"?>
<svg
   width="728px"
   height="591px"
   viewBox="0 0 728 591"
   version="1.1"
   id="svg496"
   sodipodi:docname="register-v2.svg"
   inkscape:version="1.1.2 (0a00cf5339, 2022-02-04)"
   xmlns:inkscape="http://www.inkscape.org/namespaces/inkscape"
   xmlns:sodipodi="http://sodipodi.sourceforge.net/DTD/sodipodi-0.dtd"
   xmlns:xlink="http://www.w3.org/1999/xlink"
   xmlns="http://www.w3.org/2000/svg"
   xmlns:svg="http://www.w3.org/2000/svg">
  <sodipodi:namedview
     id="namedview498"
     pagecolor="#ffffff"
     bordercolor="#666666"
     borderopacity="1.0"
     inkscape:pageshadow="2"
     inkscape:pageopacity="0.0"
     inkscape:pagecheckerboard="0"
     showgrid="false"
     inkscape:zoom="1.4077834"
     inkscape:cx="220.5595"
     inkscape:cy="349.13041"
     inkscape:window-width="1920"
     inkscape:window-height="1013"
     inkscape:window-x="0"
     inkscape:window-y="30"
     inkscape:window-maximized="1"
     inkscape:current-layer="ðŸ“-Pages-New" />
  <title
     id="title2">Group</title>
  <defs
     id="defs139">
    <filter
       x="-0.07885584"
       y="-0.078855851"
       width="1.1577117"
       height="1.1577117"
       filterUnits="objectBoundingBox"
       id="filter-1">
      <feGaussianBlur
         stdDeviation="3"
         in="SourceGraphic"
         id="feGaussianBlur4" />
    </filter>
    <linearGradient
       x1="137.68383"
       y1="-163.18745"
       x2="137.68383"
       y2="200.50224"
       id="linearGradient-2"
       gradientTransform="scale(0.86070446,1.161839)"
       gradientUnits="userSpaceOnUse">
      <stop
         stop-color="#A2FFEA"
         offset="0%"
         id="stop7" />
      <stop
         stop-color="#8CA5FF"
         offset="100%"
         id="stop9" />
    </linearGradient>
    <path
       d="M5.388768,0 L151.480514,0 C154.456648,3.41471402e-16 156.869282,2.41263361 156.869282,5.388768 L156.869282,52.8997392 C156.869282,55.8758736 154.456648,58.2885072 151.480514,58.2885072 L5.388768,58.2885072 C2.41263361,58.2885072 -5.23707075e-16,55.8758736 0,52.8997392 L0,5.388768 C5.23707075e-16,2.41263361 2.41263361,2.32306386e-15 5.388768,0 Z"
       id="path-3" />
    <filter
       x="-0.29833757"
       y="-0.8029027"
       width="1.6412983"
       height="2.7773658"
       filterUnits="objectBoundingBox"
       id="filter-4">
      <feOffset
         dx="7"
         dy="8"
         in="SourceAlpha"
         result="shadowOffsetOuter1"
         id="feOffset13" />
      <feGaussianBlur
         stdDeviation="12.5"
         in="shadowOffsetOuter1"
         result="shadowBlurOuter1"
         id="feGaussianBlur15" />
      <feColorMatrix
         values="0 0 0 0 0.0755212756   0 0 0 0 0.582569014   0 0 0 0 0.878793025  0 0 0 0.229458042 0"
         type="matrix"
         in="shadowBlurOuter1"
         result="shadowMatrixOuter1"
         id="feColorMatrix17" />
      <feOffset
         dx="0"
         dy="2"
         in="SourceAlpha"
         result="shadowOffsetOuter2"
         id="feOffset19" />
      <feGaussianBlur
         stdDeviation="7"
         in="shadowOffsetOuter2"
         result="shadowBlurOuter2"
         id="feGaussianBlur21" />
      <feColorMatrix
         values="0 0 0 0 0.50398247   0 0 0 0 0.700178215   0 0 0 0 1  0 0 0 0.233828671 0"
         type="matrix"
         in="shadowBlurOuter2"
         result="shadowMatrixOuter2"
         id="feColorMatrix23" />
      <feMerge
         id="feMerge29">
        <feMergeNode
           in="shadowMatrixOuter1"
           id="feMergeNode25" />
        <feMergeNode
           in="shadowMatrixOuter2"
           id="feMergeNode27" />
      </feMerge>
    </filter>
    <path
       d="M8,0 L148.476667,0 C152.894945,-1.65085012e-14 156.476667,3.581722 156.476667,8 L156.476667,124.215082 C156.476667,128.63336 152.894945,132.215082 148.476667,132.215082 L8,132.215082 C3.581722,132.215082 5.41083001e-16,128.63336 0,124.215082 L0,8 C-5.41083001e-16,3.581722 3.581722,8.11624501e-16 8,0 Z"
       id="path-5" />
    <filter
       x="-0.32976163"
       y="-0.39027318"
       width="1.7106491"
       height="1.8637441"
       filterUnits="objectBoundingBox"
       id="filter-7">
      <feOffset
         dx="8"
         dy="9"
         in="SourceAlpha"
         result="shadowOffsetOuter1"
         id="feOffset33" />
      <feGaussianBlur
         stdDeviation="14"
         in="shadowOffsetOuter1"
         result="shadowBlurOuter1"
         id="feGaussianBlur35" />
      <feColorMatrix
         values="0 0 0 0 0.0755212756   0 0 0 0 0.582569014   0 0 0 0 0.878793025  0 0 0 0.229458042 0"
         type="matrix"
         in="shadowBlurOuter1"
         result="shadowMatrixOuter1"
         id="feColorMatrix37" />
      <feOffset
         dx="0"
         dy="2"
         in="SourceAlpha"
         result="shadowOffsetOuter2"
         id="feOffset39" />
      <feGaussianBlur
         stdDeviation="7.5"
         in="shadowOffsetOuter2"
         result="shadowBlurOuter2"
         id="feGaussianBlur41" />
      <feColorMatrix
         values="0 0 0 0 0.50398247   0 0 0 0 0.700178215   0 0 0 0 1  0 0 0 0.233828671 0"
         type="matrix"
         in="shadowBlurOuter2"
         result="shadowMatrixOuter2"
         id="feColorMatrix43" />
      <feMerge
         id="feMerge49">
        <feMergeNode
           in="shadowMatrixOuter1"
           id="feMergeNode45" />
        <feMergeNode
           in="shadowMatrixOuter2"
           id="feMergeNode47" />
      </feMerge>
    </filter>
    <path
       d="M20.9333333,101.167213 C33.3072193,97.6140224 42.2221433,92.2112006 47.6781053,84.9587477 C55.8620484,74.0800684 58.6211293,63.5355205 72.6967097,63.5355205 C86.7722901,63.5355205 88.5769653,79.6852138 103.793002,79.6852138 C119.009039,79.6852138 119.841169,59.0900141 124.898413,50.9122201 C128.269909,45.4603575 132.864883,42.7344262 138.683333,42.7344262"
       id="path-8" />
    <filter
       x="-0.07133758"
       y="-0.14375491"
       width="1.1426752"
       height="1.492874"
       filterUnits="objectBoundingBox"
       id="filter-9">
      <feMorphology
         radius="1.32"
         operator="dilate"
         in="SourceAlpha"
         result="shadowSpreadOuter1"
         id="feMorphology53" />
      <feOffset
         dx="0"
         dy="6"
         in="shadowSpreadOuter1"
         result="shadowOffsetOuter1"
         id="feOffset55" />
      <feMorphology
         radius="1.32"
         operator="erode"
         in="SourceAlpha"
         result="shadowInner"
         id="feMorphology57" />
      <feOffset
         dx="0"
         dy="6"
         in="shadowInner"
         result="shadowInner"
         id="feOffset59" />
      <feComposite
         in="shadowOffsetOuter1"
         in2="shadowInner"
         operator="out"
         result="shadowOffsetOuter1"
         id="feComposite61" />
      <feGaussianBlur
         stdDeviation="3.5"
         in="shadowOffsetOuter1"
         result="shadowBlurOuter1"
         id="feGaussianBlur63" />
      <feColorMatrix
         values="0 0 0 0 0   0 0 0 0 0   0 0 0 0 0  0 0 0 0.144394668 0"
         type="matrix"
         in="shadowBlurOuter1"
         id="feColorMatrix65" />
    </filter>
    <linearGradient
       x1="57.600269"
       y1="99.907052"
       x2="59.710074"
       y2="122.43036"
       id="linearGradient-10"
       gradientTransform="matrix(-1.0979522,0,0,0.91078644,443.5,450)"
       gradientUnits="userSpaceOnUse">
      <stop
         stop-color="#FDC6C6"
         offset="0%"
         id="stop68" />
      <stop
         stop-color="#FAB2B2"
         offset="100%"
         id="stop70" />
    </linearGradient>
    <linearGradient
       x1="52.972161"
       y1="-11.267485"
       x2="56.147533"
       y2="46.86954"
       id="linearGradient-11"
       gradientTransform="matrix(-0.95943664,0,0,1.0422783,415.98,373.32)"
       gradientUnits="userSpaceOnUse">
      <stop
         stop-color="#FDC6C6"
         offset="0%"
         id="stop73" />
      <stop
         stop-color="#FAB2B2"
         offset="100%"
         id="stop75" />
    </linearGradient>
    <linearGradient
       x1="19.375267"
       y1="15.988857"
       x2="24.304401"
       y2="60.747434"
       id="linearGradient-12"
       gradientTransform="matrix(-0.88670135,0,0,1.1277754,444.5,317)"
       gradientUnits="userSpaceOnUse">
      <stop
         stop-color="#FFAFAF"
         offset="0%"
         id="stop78" />
      <stop
         stop-color="#F07777"
         offset="100%"
         id="stop80" />
    </linearGradient>
    <linearGradient
       x1="14.074397"
       y1="11.944659"
       x2="21.288351"
       y2="41.754141"
       id="linearGradient-13"
       gradientTransform="matrix(-1.028602,0,0,0.9721933,444.5,317)"
       gradientUnits="userSpaceOnUse">
      <stop
         stop-color="#FDC6C6"
         offset="0%"
         id="stop83" />
      <stop
         stop-color="#FAB2B2"
         offset="100%"
         id="stop85" />
    </linearGradient>
    <linearGradient
       x1="100.12639"
       y1="117.48485"
       x2="102.63543"
       y2="138.10537"
       id="linearGradient-14"
       gradientTransform="matrix(-1.1721489,0,0,0.85313394,457.5,446)"
       gradientUnits="userSpaceOnUse">
      <stop
         stop-color="#FDC6C6"
         offset="0%"
         id="stop88" />
      <stop
         stop-color="#FAB2B2"
         offset="100%"
         id="stop90" />
    </linearGradient>
    <linearGradient
       x1="30.585661"
       y1="45.290981"
       x2="33.870803"
       y2="63.270174"
       id="linearGradient-15"
       gradientTransform="matrix(-1.2975525,0,0,0.7706817,479.5,376.9)"
       gradientUnits="userSpaceOnUse">
      <stop
         stop-color="#FDC6C6"
         offset="0%"
         id="stop93" />
      <stop
         stop-color="#FAB2B2"
         offset="100%"
         id="stop95" />
    </linearGradient>
    <linearGradient
       x1="25.350891"
       y1="13.649777"
       x2="4.2309889"
       y2="13.649777"
       id="linearGradient-16"
       gradientTransform="matrix(0.99555751,0,0,1.0044623,243.5,414.26933)"
       gradientUnits="userSpaceOnUse">
      <stop
         stop-color="#F16B79"
         offset="0%"
         id="stop98" />
      <stop
         stop-color="#F69D88"
         offset="100%"
         id="stop100" />
    </linearGradient>
    <linearGradient
       x1="28.75899"
       y1="-9.4675252"
       x2="28.75899"
       y2="41.607991"
       id="linearGradient-17"
       gradientTransform="matrix(1.0061456,0,0,0.99389191,583.5,349)"
       gradientUnits="userSpaceOnUse">
      <stop
         stop-color="#9FF6EC"
         offset="0%"
         id="stop103" />
      <stop
         stop-color="#7D9DFF"
         offset="100%"
         id="stop105" />
    </linearGradient>
    <path
       d="M8.90624038,0 L36.5106644,0 C36.9083094,-2.9509081e-16 37.2306644,0.32235498 37.2306644,0.72 C37.2306644,0.77036697 37.2253794,0.82059492 37.2148961,0.869858835 L29.6379913,36.4760127 C29.5672473,36.8084605 29.2736512,37.0461538 28.9337596,37.0461538 L1.32933562,37.0461538 C0.931690599,37.0461538 0.609335619,36.7237989 0.609335619,36.3261538 C0.609335619,36.2757869 0.614620645,36.2255589 0.625103889,36.176295 L8.20200865,0.570141165 C8.27275275,0.237693377 8.56634884,9.50615483e-16 8.90624038,0 Z"
       id="path-18" />
    <linearGradient
       x1="23.85822"
       y1="16.221495"
       x2="28.775122"
       y2="59.24532"
       id="linearGradient-20"
       gradientTransform="matrix(0.89495131,0,0,1.1173792,104.5,252)"
       gradientUnits="userSpaceOnUse">
      <stop
         stop-color="#FFAFAF"
         offset="0%"
         id="stop109" />
      <stop
         stop-color="#F07777"
         offset="100%"
         id="stop111" />
    </linearGradient>
    <linearGradient
       x1="18.089947"
       y1="12.598546"
       x2="24.981816"
       y2="40.724436"
       id="linearGradient-21"
       gradientTransform="matrix(1.0318114,0,0,0.96916936,104.5,252)"
       gradientUnits="userSpaceOnUse">
      <stop
         stop-color="#FDC6C6"
         offset="0%"
         id="stop114" />
      <stop
         stop-color="#FAB2B2"
         offset="100%"
         id="stop116" />
    </linearGradient>
    <linearGradient
       x1="9.8468177"
       y1="-2.8622617"
       x2="11.50056"
       y2="21.280046"
       id="linearGradient-22"
       gradientTransform="matrix(0.75026543,0,0,1.3328616,188.34927,280)"
       gradientUnits="userSpaceOnUse">
      <stop
         stop-color="#FDC6C6"
         offset="0%"
         id="stop119" />
      <stop
         stop-color="#FAB2B2"
         offset="100%"
         id="stop121" />
    </linearGradient>
    <linearGradient
       x1="24.184739"
       y1="167.03324"
       x2="24.926669"
       y2="183.70379"
       id="linearGradient-23"
       gradientTransform="matrix(0.91155773,0,0,1.0970232,112.5,375)"
       gradientUnits="userSpaceOnUse">
      <stop
         stop-color="#FDC6C6"
         offset="0%"
         id="stop124" />
      <stop
         stop-color="#FAB2B2"
         offset="100%"
         id="stop126" />
    </linearGradient>
    <linearGradient
       x1="10.179367"
       y1="160.19419"
       x2="10.670981"
       y2="174.71461"
       id="linearGradient-24"
       gradientTransform="scale(0.85131882,1.1746481)"
       gradientUnits="userSpaceOnUse">
      <stop
         stop-color="#FDC6C6"
         offset="0%"
         id="stop129" />
      <stop
         stop-color="#FAB2B2"
         offset="100%"
         id="stop131" />
    </linearGradient>
    <linearGradient
       x1="42.584286"
       y1="87.533881"
       x2="46.851954"
       y2="93.326618"
       id="linearGradient-25"
       gradientTransform="matrix(1.3586859,0,0,0.73600527,74.5,306)"
       gradientUnits="userSpaceOnUse">
      <stop
         stop-color="#FDC6C6"
         offset="0%"
         id="stop134" />
      <stop
         stop-color="#FAB2B2"
         offset="100%"
         id="stop136" />
    </linearGradient>
    <mask
       id="mask-6"
       fill="#ffffff">
      <use
         xlink:href="#path-5"
         id="use220"
         x="0"
         y="0"
         width="100%"
         height="100%" />
    </mask>
    <mask
       id="mask-19"
       fill="#ffffff">
      <use
         xlink:href="#path-18"
         id="use411"
         x="0"
         y="0"
         width="100%"
         height="100%" />
    </mask>
  </defs>
  <g
     id="ðŸ“-Pages-New"
     stroke="none"
     stroke-width="1"
     fill="none"
     fill-rule="evenodd">
    <path
       d="m 524.94537,234.92025 90.49225,-90.27014 c 3.90341,-3.8935 10.22151,-3.89366 14.12476,0 l 90.49225,90.27014 c 3.91019,3.90029 3.91782,10.23208 0.0174,14.14212 -0.006,0.006 -0.0116,0.0116 -0.0174,0.0174 l -90.49226,90.27013 c -3.9034,3.89351 -10.2215,3.89366 -14.12475,0 l -90.49224,-90.27015 c -3.91019,-3.90029 -3.91782,-10.23209 -0.0174,-14.14212 0.006,-0.006 0.0116,-0.0116 0.0174,-0.0174 z"
       id="Rectangle"
       fill="#bfe7ff"
       opacity="0.150019" />
    <path
       d="m 237.80715,19.423004 71.21833,0.08751 c 5.51325,0.0068 9.98093,4.474456 9.98771,9.987704 l 0.0875,71.218342 c 0.007,5.52284 -4.46486,10.00548 -9.9877,10.01228 -0.008,10e-6 -0.0164,10e-6 -0.0246,0 l -71.21834,-0.0875 c -5.51325,-0.007 -9.98093,-4.47445 -9.9877,-9.9877 l -0.0875,-71.21833 c -0.007,-5.522844 4.46487,-10.005494 9.98771,-10.012281 0.008,-10e-6 0.0164,-10e-6 0.0246,0 z"
       id="path142"
       fill="#317bc8"
       opacity="0.0375744"
       filter="url(#filter-1)"
       transform="rotate(-45,289.14017,71.575922)" />
    <path
       d="M 268.43887,239.98997 456.47747,52.412935 c 3.90326,-3.893648 10.2215,-3.893665 14.12475,-2e-6 L 658.64081,239.98997 c 3.91019,3.90029 3.91782,10.23208 0.0174,14.14212 -0.006,0.006 -0.0116,0.0116 -0.0174,0.0174 L 470.6022,441.72652 c -3.9034,3.89351 -10.2215,3.89367 -14.12475,0 L 268.43885,254.14949 c -3.91019,-3.90029 -3.91782,-10.23209 -0.0174,-14.14213 0.006,-0.006 0.0116,-0.0116 0.0174,-0.0174 z"
       id="path144"
       fill="#317bc8"
       opacity="0.0659412" />
    <path
       d="m 128.38637,249.9879 c 4.24604,-4.24604 11.12179,-4.25448 15.35741,-0.0189 l 119.64063,119.64062 c 4.23562,4.23562 4.22717,11.11137 -0.0189,15.35741 L 143.43051,504.90209 c -4.24604,4.24605 -11.12179,4.2545 -15.35741,0.0189 L 8.4324731,385.28034 C 4.196854,381.04472 4.205299,374.16897 8.451343,369.92292 Z m 7.61243,53.7413 -73.806164,73.80616 73.624994,73.625 73.80617,-73.80617 z"
       id="path146"
       fill="#317bc8"
       fill-rule="nonzero"
       opacity="0.0895647" />
    <polygon
       id="Path"
       fill="url(#linearGradient-2)"
       points="81.088464,232.91163 81.088038,164.28868 12.107734,232.95132 -4.94788e-13,232.95132 81.088038,152.30788 81.088464,0 89.792866,0 89.79244,143.76742 89.938779,143.62542 89.904509,150.75695 172.57317,232.95132 161.55349,232.95132 89.79244,161.56666 89.792866,232.91163 "
       style="fill:#65aaf0;fill-opacity:1"
       transform="translate(111.5,356)" />
    <path
       d="m 212.61362,496.4 h -30.25786 c -2.76143,0 -5,2.23858 -5,5 v 7.41395 c 0,2.76143 2.23857,5 5,5 h 30.25786 c 2.76142,0 5,-2.23857 5,-5 V 501.4 c 0,-2.76142 -2.23858,-5 -5,-5 z"
       id="path150"
       fill="#c8daff"
       style="fill:#e3f4ff;fill-opacity:1" />
    <path
       d="M 129.24993,153 H 281.8011 c 2.8532,0 5.16616,2.30415 5.16616,5.14647 v 254.45366 c 0,2.76336 -2.18625,5.01804 -4.92968,5.14117 l -0.25656,0.005 v 0 l -152.55116,-0.59042 c -2.84534,-0.011 -5.14609,-2.31192 -5.14609,-5.14643 V 158.14647 c 0,-2.84232 2.31297,-5.14647 5.16616,-5.14647 z"
       id="path153"
       fill="#afa7ff"
       style="fill:#67a9f0;fill-opacity:1" />
    <path
       d="m 121.77822,153 h 152.55116 c 2.8532,0 5.16617,2.30415 5.16617,5.14647 v 254.45366 c 0,2.76336 -2.18626,5.01804 -4.92969,5.14117 l -0.25656,0.005 v 0 l -152.55116,-0.59042 c -2.84534,-0.011 -5.14608,-2.31192 -5.14608,-5.14643 V 158.14647 c 0,-2.84232 2.31296,-5.14647 5.16616,-5.14647 z"
       id="path155"
       fill="#d5d1ff"
       style="fill:#8fc0f4;fill-opacity:1" />
    <path
       d="m 129.14117,158.3166 h 137.61422 c 3.26405,0 5.91009,2.63595 5.91009,5.88756 v 240.23168 c 0,3.25161 -2.64604,5.88756 -5.91009,5.88756 H 129.14117 c -3.26405,0 -5.91009,-2.63595 -5.91009,-5.88756 V 164.20416 c 0,-3.25161 2.64604,-5.88756 5.91009,-5.88756 z"
       id="path157"
       fill="#ffffff" />
    <path
       d="m 172.33096,402.88016 h 41.62815 c 2.35801,0 4.26955,1.90426 4.26955,4.25328 v 13.82316 h -45.8977 c -2.35801,0 -4.26956,-1.90426 -4.26956,-4.25328 v -9.56988 c 0,-2.34902 1.91155,-4.25328 4.26956,-4.25328 z"
       id="path159"
       fill="#a7c3ff" />
    <polygon
       id="polygon161"
       fill="#a7c3ff"
       points="100.66127,263.70332 104.93083,263.70332 104.93083,267.9566 100.66127,267.9566 "
       transform="translate(116.5,153)" />
    <path
       d="m 170.19618,402.88016 h 41.62815 c 2.35801,0 4.26955,1.90426 4.26955,4.25328 v 9.56988 c 0,2.34902 -1.91154,4.25328 -4.26955,4.25328 h -41.62815 c -2.35801,0 -4.26956,-1.90426 -4.26956,-4.25328 v -9.56988 c 0,-2.34902 1.91155,-4.25328 4.26956,-4.25328 z"
       id="path163"
       fill="#c8daff"
       style="fill:#e3f4ff;fill-opacity:1" />
    <rect
       id="rect166"
       fill="#91d6ff"
       x="349.7717"
       y="184"
       width="67.653351"
       height="77.750397"
       style="fill:#66aaf0;fill-opacity:1" />
    <rect
       id="rect168"
       fill="#e3f4ff"
       x="344.5"
       y="184"
       width="67.653351"
       height="77.750397" />
    <path
       d="m 356.40753,193.1728 h 43.83828 c 2.20914,0 4,1.79086 4,4 v 51.8416 c 0,2.20914 -1.79086,4 -4,4 h -43.83828 c -2.20913,0 -4,-1.79086 -4,-4 v -51.8416 c 0,-2.20914 1.79087,-4 4,-4 z"
       id="path170"
       fill="#ffffff" />
    <path
       d="m 356.40753,193.1728 h 1.27169 v 0 59.8416 h -1.27169 c -2.20913,0 -4,-1.79086 -4,-4 v -51.8416 c 0,-2.20914 1.79087,-4 4,-4 z"
       id="path172"
       fill="#91d6ff" />
    <path
       d="m 395.11308,236.27517 -17.30799,-30.15753 c -0.11084,-0.19313 -0.35726,-0.25984 -0.5504,-0.149 -0.0641,0.0368 -0.11687,0.0905 -0.15252,0.15527 l -16.60065,30.15752 c -0.10739,0.19508 -0.0363,0.44027 0.15878,0.54766 0.0596,0.0328 0.12645,0.05 0.19444,0.05 h 33.90864 c 0.22268,0 0.4032,-0.18052 0.4032,-0.4032 0,-0.0704 -0.0184,-0.13962 -0.0535,-0.2007 z"
       id="Path-127"
       fill="#83f2d5" />
    <path
       d="m 397.28945,224.52937 -9.38481,-16.24991 c -0.11137,-0.19284 -0.35797,-0.25888 -0.5508,-0.14751 -0.0634,0.0366 -0.1156,0.0898 -0.15106,0.15378 l -9.00128,16.24991 c -0.1079,0.1948 -0.0375,0.44018 0.15733,0.54808 0.0598,0.0331 0.12702,0.0505 0.19537,0.0505 h 18.3861 c 0.22268,0 0.4032,-0.18052 0.4032,-0.4032 0,-0.0708 -0.0186,-0.14034 -0.0541,-0.20165 z"
       id="path175"
       fill="#63cbe8"
       opacity="0.44687" />
    <rect
       id="rect178"
       fill="#91d6ff"
       x="446.7717"
       y="184"
       width="67.653351"
       height="77.750397"
       style="fill:#65aaf0;fill-opacity:1" />
    <rect
       id="rect180"
       fill="#e3f4ff"
       x="441.5"
       y="184"
       width="67.653351"
       height="77.750397" />
    <path
       d="m 453.40753,193.1728 h 43.83828 c 2.20914,0 4,1.79086 4,4 v 51.8416 c 0,2.20914 -1.79086,4 -4,4 h -43.83828 c -2.20913,0 -4,-1.79086 -4,-4 v -51.8416 c 0,-2.20914 1.79087,-4 4,-4 z"
       id="path182"
       fill="#ffffff" />
    <rect
       id="rect184"
       fill="#83f2d5"
       x="461.70813"
       y="212.8288"
       width="25.91914"
       height="25.7712" />
    <rect
       id="rect186"
       fill="#63cbe8"
       opacity="0.44687"
       x="475.76599"
       y="202.78239"
       width="19.768835"
       height="19.656" />
    <path
       d="m 453.40753,193.1728 h 1.27169 v 0 59.8416 h -1.27169 c -2.20913,0 -4,-1.79086 -4,-4 v -51.8416 c 0,-2.20914 1.79087,-4 4,-4 z"
       id="path188"
       fill="#91d6ff" />
    <rect
       id="rect192"
       fill="#91d6ff"
       x="542.77167"
       y="184"
       width="67.653351"
       height="77.750397"
       style="fill:#66a9f0;fill-opacity:1" />
    <rect
       id="rect194"
       fill="#e3f4ff"
       x="537.5"
       y="184"
       width="67.653351"
       height="77.750397" />
    <path
       d="m 549.40753,193.1728 h 43.83828 c 2.20914,0 4,1.79086 4,4 v 51.8416 c 0,2.20914 -1.79086,4 -4,4 h -43.83828 c -2.20913,0 -4,-1.79086 -4,-4 v -51.8416 c 0,-2.20914 1.79087,-4 4,-4 z"
       id="path196"
       fill="#ffffff" />
    <ellipse
       id="Oval"
       fill="#83f2d5"
       cx="571.98566"
       cy="225.7144"
       rx="18.23126"
       ry="18.127199" />
    <ellipse
       id="ellipse199"
       fill="#63cbe8"
       opacity="0.44687"
       cx="580.77179"
       cy="211.3"
       rx="9.4451103"
       ry="9.3912001" />
    <path
       d="m 549.40753,193.1728 h 1.27169 v 0 59.8416 h -1.27169 c -2.20913,0 -4,-1.79086 -4,-4 v -51.8416 c 0,-2.20914 1.79087,-4 4,-4 z"
       id="path201"
       fill="#91d6ff" />
    <use
       fill="#000000"
       fill-opacity="1"
       filter="url(#filter-4)"
       xlink:href="#path-3"
       id="use205"
       x="0"
       y="0"
       width="100%"
       height="100%"
       transform="translate(103.5,323)" />
    <use
       fill="#ffffff"
       fill-rule="evenodd"
       xlink:href="#path-3"
       id="use207"
       x="0"
       y="0"
       width="100%"
       height="100%"
       transform="translate(103.5,323)" />
    <path
       d="m 156.38103,355.3825 h 29.36878 c 0.97551,0 1.76632,0.79081 1.76632,1.76632 0,0.97551 -0.79081,1.76632 -1.76632,1.76632 h -29.36878 c -0.97551,0 -1.76632,-0.79081 -1.76632,-1.76632 0,-0.97551 0.79081,-1.76632 1.76632,-1.76632 z"
       id="path211"
       fill="#ffbf29"
       fill-rule="nonzero"
       opacity="0.465472" />
    <path
       d="m 156.38103,345.37337 h 17.61828 c 0.97551,0 1.76631,0.7908 1.76631,1.76631 0,0.97551 -0.7908,1.76632 -1.76631,1.76632 h -17.61828 c -0.97551,0 -1.76632,-0.79081 -1.76632,-1.76632 0,-0.97551 0.79081,-1.76631 1.76632,-1.76631 z"
       id="path213"
       fill="#ffbf29"
       fill-rule="nonzero" />
    <path
       d="m 212.3423,345.5346 c 0.50456,-1.10961 1.8112,-1.59924 2.91846,-1.0936 0.36621,0.16723 0.67882,0.43135 0.90495,0.76266 l 0.0807,0.12733 4.32081,7.36372 c 0.0411,0.0701 0.13114,0.0935 0.20106,0.0523 l 0.0189,-0.0133 0.0166,-0.0161 2.29909,-2.60487 c 0.80616,-0.91338 2.19855,-0.99891 3.10999,-0.19104 0.0599,0.0531 0.11685,0.10939 0.1706,0.16864 l 0.0782,0.0911 3.37158,4.14942 c 0.0512,0.063 0.14374,0.0725 0.20664,0.0212 l 0.0176,-0.017 0.0145,-0.0197 5.32561,-8.62438 c 0.6403,-1.03691 1.99816,-1.35733 3.03288,-0.71567 0.16022,0.0994 0.30689,0.2188 0.43652,0.35528 l 0.094,0.10552 2.48099,2.97195 c 0.36436,0.43646 0.30666,1.08627 -0.12888,1.4514 -0.41133,0.34485 -1.01258,0.31243 -1.38505,-0.0599 l -0.0633,-0.0692 -2.48099,-2.97195 c -0.0101,-0.0121 -0.022,-0.0224 -0.0354,-0.0307 -0.0575,-0.0357 -0.12993,-0.0268 -0.17719,0.0172 l -0.025,0.0305 -5.32561,8.62437 c -0.12909,0.20906 -0.29212,0.39504 -0.48235,0.55028 -0.91103,0.74339 -2.23614,0.63631 -3.01798,-0.22305 l -0.0816,-0.0949 -3.37158,-4.1494 c -0.005,-0.006 -0.0106,-0.012 -0.0166,-0.0173 -0.0506,-0.0449 -0.12354,-0.0484 -0.17754,-0.0131 l -0.0298,0.0258 -2.29909,2.60487 c -0.15361,0.17404 -0.33367,0.32269 -0.53354,0.44047 -1.01394,0.59748 -2.30952,0.28935 -2.9519,-0.68134 l -0.0641,-0.10277 -4.32081,-7.36372 c -0.0153,-0.0261 -0.0382,-0.0468 -0.0657,-0.0593 -0.0615,-0.0281 -0.13226,-0.0101 -0.1736,0.0395 l -0.021,0.0334 -4.2097,9.25781 c -0.15691,0.34507 -0.39951,0.64308 -0.70358,0.86611 l -0.11687,0.0801 -4.99128,3.189 c -0.4788,0.30591 -1.11442,0.16493 -1.41969,-0.31489 -0.28831,-0.45317 -0.17884,-1.0465 0.23757,-1.36874 l 0.0767,-0.054 4.99128,-3.189 c 0.016,-0.0102 0.0297,-0.0233 0.0406,-0.0386 l 0.0141,-0.0245 z"
       id="path215"
       fill="#ffbf29"
       fill-rule="nonzero" />
    <ellipse
       id="ellipse217"
       fill="#ffbf29"
       fill-rule="nonzero"
       cx="132.5825"
       cy="352.73303"
       rx="12.044271"
       ry="12.069842" />
    <use
       fill="#000000"
       fill-opacity="1"
       filter="url(#filter-7)"
       xlink:href="#path-5"
       id="use223"
       x="0"
       y="0"
       width="100%"
       height="100%"
       transform="translate(103.5,172)" />
    <use
       fill="#ffffff"
       fill-rule="evenodd"
       xlink:href="#path-5"
       id="use225"
       x="0"
       y="0"
       width="100%"
       height="100%"
       transform="translate(103.5,172)" />
    <path
       d="m 20.933333,100.04274 c 12.373886,-3.537849 21.28881,-8.917339 26.744772,-16.138471 8.183943,-10.8317 10.943024,-21.33071 25.018605,-21.33071 14.07558,0 15.880255,16.07995 31.09629,16.07995 15.21604,0 16.04817,-20.506259 21.10541,-28.648736 3.3715,-5.428319 7.96647,-8.142478 13.78492,-8.142478 v 69.754755 c 0,0.97202 -0.78798,1.76 -1.76,1.76 H 22.693333 c -0.972021,0 -1.76,-0.78798 -1.76,-1.76 z"
       id="Path-3"
       fill="#ffe3b5"
       opacity="0.414737"
       mask="url(#mask-6)"
       transform="translate(103.5,172)" />
    <use
       fill="#000000"
       fill-opacity="1"
       filter="url(#filter-9)"
       xlink:href="#path-8"
       id="use230"
       x="0"
       y="0"
       width="100%"
       height="100%"
       transform="translate(103.5,172)"
       style="stroke-linecap:round" />
    <use
       stroke="#ffbf29"
       stroke-width="2.64"
       xlink:href="#path-8"
       id="use232"
       x="0"
       y="0"
       width="100%"
       height="100%"
       transform="translate(103.5,172)"
       style="stroke-linecap:round" />
    <rect
       id="rect236"
       fill="#ffbf29"
       fill-rule="nonzero"
       mask="url(#mask-6)"
       x="12.211111"
       y="13.081967"
       width="48.844444"
       height="5.2327867"
       transform="translate(103.5,172)" />
    <path
       d="m 14.827505,26.163934 h 17.44499 c 1.444995,0 2.616394,1.1714 2.616394,2.616394 0,1.444994 -1.171399,2.616393 -2.616394,2.616393 h -17.44499 c -1.444995,0 -2.616394,-1.171399 -2.616394,-2.616393 0,-1.444994 1.171399,-2.616394 2.616394,-2.616394 z"
       id="path238"
       fill="#ffbf29"
       fill-rule="nonzero"
       opacity="0.465472"
       mask="url(#mask-6)"
       transform="translate(103.5,172)" />
    <path
       d="m 126.03611,19.186885 c 1.686,0 3.05278,-1.366632 3.05278,-3.052459 0,-1.685826 -1.36678,-3.052459 -3.05278,-3.052459 -1.686,0 -3.05278,1.366633 -3.05278,3.052459 0,1.685827 1.36678,3.052459 3.05278,3.052459 z"
       id="path240"
       fill="#ffffff"
       mask="url(#mask-6)"
       transform="translate(103.5,172)" />
    <path
       d="m 134.75833,19.186885 c 1.68601,0 3.05278,-1.366632 3.05278,-3.052459 0,-1.685826 -1.36677,-3.052459 -3.05278,-3.052459 -1.686,0 -3.05277,1.366633 -3.05277,3.052459 0,1.685827 1.36677,3.052459 3.05277,3.052459 z"
       id="path242"
       fill="#ffffff"
       mask="url(#mask-6)"
       transform="translate(103.5,172)" />
    <path
       d="m 143.48056,19.186885 c 1.686,0 3.05277,-1.366632 3.05277,-3.052459 0,-1.685826 -1.36677,-3.052459 -3.05277,-3.052459 -1.68601,0 -3.05278,1.366633 -3.05278,3.052459 0,1.685827 1.36677,3.052459 3.05278,3.052459 z"
       id="path244"
       fill="#ffffff"
       mask="url(#mask-6)"
       transform="translate(103.5,172)" />
    <path
       d="m 468.47998,574.30649 -40.02556,-2.19842 v 0 h -12.27403 l -40.1874,2.19874 c -0.89085,0.0487 -1.58822,0.78531 -1.58822,1.67749 v 2.98067 0 h 95.66308 v -2.98101 c 0,-0.89204 -0.69717,-1.62855 -1.58787,-1.67747 z"
       id="path247"
       fill="#bfe7ff" />
    <polygon
       id="polygon249"
       fill="#bfe7ff"
       points="74.708308,111.99613 83.819077,111.99613 83.819077,180.56519 74.708308,180.56519 "
       transform="matrix(-1,0,0,1,501.5,392)" />
    <rect
       id="rect251"
       fill="#91d6ff"
       x="-429.0694"
       y="562.96552"
       width="13.666154"
       height="15.999448"
       transform="scale(-1,1)" />
    <path
       d="m 432.78477,498.96774 h -21.09692 c -0.46392,0 -0.84,0.37608 -0.84,0.83999 v 7.27745 c 0,0.34311 0.20867,0.65173 0.52709,0.77954 l 5.01652,2.01361 c 0.0995,0.0399 0.20571,0.0604 0.31291,0.0604 h 11.06388 c 0.1072,0 0.21341,-0.0205 0.3129,-0.0604 l 5.01652,-2.01361 c 0.31842,-0.12781 0.5271,-0.43643 0.5271,-0.77954 v -7.27745 c 0,-0.46391 -0.37608,-0.83999 -0.84,-0.83999 z"
       id="path253"
       fill="#91d6ff" />
    <rect
       id="rect255"
       fill="#91d6ff"
       x="-472.34555"
       y="578.96497"
       width="9.1107693"
       height="9.1425419"
       transform="scale(-1,1)" />
    <rect
       id="rect257"
       fill="#91d6ff"
       x="-381.23785"
       y="578.96497"
       width="9.1107693"
       height="9.1425419"
       transform="scale(-1,1)" />
    <rect
       id="rect259"
       fill="#91d6ff"
       x="-426.79169"
       y="578.96497"
       width="9.1107693"
       height="9.1425419"
       transform="scale(-1,1)" />
    <path
       d="m 425.8552,486.16818 h -57.34701 c -4.03943,0 -7.31404,3.2746 -7.31404,7.31403 0,4.03943 3.27461,7.31403 7.31404,7.31403 h 57.34701 c 4.03943,0 7.31403,-3.2746 7.31403,-7.31403 0,-4.03943 -3.2746,-7.31403 -7.31403,-7.31403 z"
       id="path261"
       fill="#bfe7ff" />
    <path
       d="m 468.70123,418.51337 h -12.75508 c 0,12.19005 0,24.38011 0,36.57017 0,12.19005 -6.83307,24.38011 -20.49923,36.57016 h 16.85493 c 10.93292,-10.38085 16.39938,-22.5709 16.39938,-36.57016 0,-12.19006 0,-24.38012 0,-36.57017 z"
       id="path263"
       fill="#91d6ff" />
    <path
       d="m 463.23477,418.51337 h -12.75508 c 0,12.19005 0,24.38011 0,36.57017 0,12.19005 -6.83308,24.38011 -20.49923,36.57016 h 15.03277 c 12.14769,-10.09585 18.22154,-22.28591 18.22154,-36.57016 0,-12.19006 0,-24.38012 0,-36.57017 z"
       id="path265"
       fill="#bfe7ff" />
    <path
       d="m 492.18892,392 h -65.6838 c -4.63919,0 -8.4,3.76081 -8.4,8.4 v 37.01519 c 0,4.6392 3.76081,8.4 8.4,8.4 h 65.6838 c 4.6392,0 8.4,-3.7608 8.4,-8.4 V 400.4 c 0,-4.63919 -3.7608,-8.4 -8.4,-8.4 z"
       id="path267"
       fill="#bfe7ff" />
    <path
       d="m 495.07581,392 c -3.26217,0 -5.90669,2.64452 -5.90669,5.90669 v 42.00181 c 0,3.26218 2.64452,5.90669 5.90669,5.90669 3.26218,0 5.9067,-2.64451 5.9067,-5.90669 v -42.00181 c 0,-3.26217 -2.64452,-5.90669 -5.9067,-5.90669 z"
       id="path269"
       fill="#91d6ff" />
    <path
       d="m 470.49797,486.16818 h -55.52486 c -4.03943,0 -7.31403,3.2746 -7.31403,7.31403 0,4.03943 3.2746,7.31403 7.31403,7.31403 h 55.52486 c 4.03943,0 7.31403,-3.2746 7.31403,-7.31403 0,-4.03943 -3.2746,-7.31403 -7.31403,-7.31403 z"
       id="path272"
       fill="#91d6ff" />
    <path
       d="m 377.60912,543.415 c 0,0 5.24586,10.5952 0.94544,13.93401 -4.30689,3.33945 -15.68327,9.59737 -15.68327,9.59737 l 30.1398,-1.89412 -6.6996,-23.10781 z"
       id="path275"
       fill="url(#linearGradient-10)"
       style="fill:url(#linearGradient-10)" />
    <path
       d="m 390.02532,553.00254 c -0.94844,0.45275 0.61097,4.70988 -2.72603,4.41058 -3.33609,-0.29834 -5.43084,-4.69876 -7.89108,-4.41281 -2.46115,0.28499 -4.02292,4.71633 -8.70752,7.80268 -4.68368,3.0873 -11.62866,6.76868 -11.16331,9.87219 0.46536,3.10351 11.39426,3.93467 16.93094,2.90715 5.53667,-1.02656 8.12125,-3.2522 11.71332,-3.07491 3.59208,0.17729 5.84935,-0.26212 6.97571,-2.56878 1.12543,-2.30666 -4.03754,-15.45857 -5.13203,-14.9361 z"
       id="path277"
       fill="#eedfe8" />
    <path
       d="m 389.75882,567.16707 -0.3072,-0.0176 c -4.45173,-0.37544 -7.5059,2.42436 -11.74283,3.21361 -4.23785,0.79015 -15.41372,1.06328 -17.19846,-1.58763 -0.0846,-0.12553 -0.16307,-0.25413 -0.23595,-0.38482 -0.59944,0.73783 -0.88184,1.52597 -0.737,2.4452 0.46539,2.95353 11.39513,3.74453 16.93223,2.76667 5.5371,-0.97695 8.12187,-3.09504 11.71422,-2.92632 l 0.63849,0.0239 c 3.22334,0.0876 5.27958,-0.40644 6.33775,-2.46859 0.2576,-0.50241 0.19982,-1.58303 -0.0588,-2.94847 -1.50245,1.02797 -3.39892,1.94328 -5.34242,1.88398 z"
       id="path279"
       fill="#ec7aa5" />
    <path
       d="m 423.01157,450.03162 c -9.12464,0.40741 -59.90988,11.63999 -69.1367,13.54832 -9.22681,1.90834 -17.02749,12.23449 -9.99161,24.1916 7.90242,13.42248 28.29213,51.54202 33.24259,60.13511 2.45027,4.25322 14.81148,1.86854 11.90788,-5.27016 -5.41281,-13.30783 -7.92653,-46.73836 -21.72667,-58.92763 0,0 46.40973,8.07707 66.4568,-1.17497 14.56969,-6.72547 11.27363,-33.48717 -10.75229,-32.50227 z"
       id="path281"
       fill="#413c75"
       style="fill:#214478" />
    <path
       d="m 359.35944,393.07428 c 0,0 0.10311,-5.42443 -2.49394,-9.30447 -2.59706,-3.88004 -2.70017,-8.00149 -4.66568,-7.86658 -1.96551,0.1349 -0.0193,9.71462 -0.0193,9.71462 0,0 -2.49394,-0.95274 -4.28546,-2.15787 -1.79152,-1.20513 -7.22407,-7.14622 -8.49359,-6.09343 -2.1524,1.79382 1.31463,11.91252 3.20282,13.93548 1.89462,2.02361 11.24417,7.67797 11.24417,7.67797 l 27.5346,27.73918 4.11697,-14.7258 z"
       id="path284"
       fill="url(#linearGradient-11)"
       style="fill:url(#linearGradient-11)" />
    <path
       d="m 414.43336,390.62541 c -4.24457,9.84482 -12.01648,27.9301 -15.22048,33.32576 -4.0153,6.75721 -10.34688,9.73429 -17.76018,4.72076 -1.03398,-0.69929 -3.03575,-2.27192 -6.0053,-4.71792 0.65907,-6.42204 3.05849,-11.78974 7.19439,-16.10542 1.87238,1.54906 2.80857,2.3236 2.80857,2.3236 0,0 7.96592,-20.4198 14.37392,-32.24874 5.54969,-10.234 21.07,-2.26456 14.60908,12.70196 z"
       id="path286"
       fill="#ea5455" />
    <path
       d="m 385.36805,410.18277 c -1.42632,4.83783 -2.3062,7.11669 -2.63963,6.83658 -0.33342,-0.28011 -0.20605,-3.19115 0.38213,-8.73312 z"
       id="path288"
       fill-opacity="0.159856"
       fill="#000000" />
    <path
       d="m 432.77812,352.41144 v 8.71118 l 6.39706,-5.1507 c 0,0 1.96624,-8.3462 3.5654,-14.54518 1.00281,-3.88729 3.44611,-17.04317 -6.38999,-16.42674 -8.05752,-14.20365 -31.52344,-5.41279 -31.71032,11.93996 -0.22475,20.87088 -0.0413,28.99682 -0.0413,28.99682 13.2695,0.76153 20.73835,-1.15696 28.17919,-13.52534 z"
       id="path291"
       fill="#422851" />
    <path
       d="m 439.31341,368.99737 c 0,0 -5.95087,-1.39703 -6.15732,-11.14781 -0.20644,-9.75078 -0.0615,-13.0792 -0.0615,-13.0792 l -13.10801,-0.23652 c 0,0 -0.14267,10.86709 -0.14492,14.79775 -0.005,9.55723 -7.03381,10.34078 -7.03381,10.34078 0,0 1.20139,7.8852 13.07883,8.55307 9.27363,0.52227 13.42675,-9.22807 13.42675,-9.22807 z"
       id="path293"
       fill="url(#linearGradient-12)"
       style="fill:url(#linearGradient-12)" />
    <path
       d="m 436.1502,339.90125 c 5.84746,-0.22627 4.89367,8.33394 -1.18075,8.32232 0,0 -3.52811,12.16029 -15.77726,12.16029 -9.94789,0 -10.59502,-14.17304 -10.68526,-17.00039 -0.0971,-3.01464 -0.10937,-12.91855 -0.10937,-12.91855 l 27.98027,-0.013 z"
       id="path295"
       fill="url(#linearGradient-13)"
       style="fill:url(#linearGradient-13)" />
    <path
       d="m 436.60272,339.84501 c -2.4233,0.39959 -2.12926,2.00397 -2.78832,1.86372 -3.34598,-0.71138 -16.89005,0.22704 -18.63402,-7.22075 -2.16993,4.65303 -2.70037,5.79692 -7.47861,7.04586 V 327.89888 L 437.92355,325 c 0,0 -0.46912,14.70375 -1.32083,14.84501 z"
       id="path297"
       fill="#422851" />
    <path
       d="m 421.55378,352.21469 c 0,0 -2.91759,2.47041 -6.2966,0.15714"
       id="path299"
       stroke="#f77b7b"
       stroke-width="1.5"
       stroke-linecap="round" />
    <path
       d="m 419.62792,355.0755 c -0.90782,0.41885 -1.78169,0.44936 -2.5619,0.0317"
       id="path301"
       stroke="#f49494"
       stroke-linecap="round" />
    <path
       d="m 435.55419,344.50485 c -0.0601,-1.37313 0.35875,-2.46363 1.75922,-2.68276"
       id="Path-8"
       stroke="#f77b7b"
       stroke-linecap="round" />
    <path
       d="m 437.98416,368 c -7.46813,4.57401 -16.10176,6.25091 -24.13879,1.28384 -13.11578,25.8616 -16.38438,56.71798 -13.22956,90.82245 19.12545,7.5717 35.19951,6.0826 48.88419,-2.57179 z"
       id="path305"
       fill="#ffe4f4" />
    <path
       d="m 344.91537,543.84037 c 0,0 0.15815,12.47057 -10.11759,17.13313 -10.26927,4.66191 -17.5858,4.38125 -16.65458,7.98585 0.93122,3.60394 27.66118,3.45844 30.15736,0.63957 2.12758,-2.39789 6.75411,-24.7271 8.02807,-23.01986 z"
       id="path307"
       fill="url(#linearGradient-14)"
       style="fill:url(#linearGradient-14)" />
    <path
       d="m 352.37919,561.45176 c -1.57472,-1.13318 -2.89896,5.4014 -7.17648,3.58399 -4.27752,-1.81646 -0.9044,-7.82257 -3.59632,-8.93034 -2.69192,-1.10776 -7.89017,4.848 -14.79407,6.29552 -6.90389,1.44659 -12.50944,2.7134 -14.10258,5.40045 -1.37212,2.30965 0,3.04801 0,3.04801 0,0 6.64646,3.31887 10.77634,4.04941 5.9995,1.06126 23.33924,1.768 25.23903,-0.16706 1.16676,-1.18682 4.44144,-12.71245 3.65408,-13.27998 z"
       id="path309"
       fill="#eedfe8" />
    <path
       d="m 312.33516,568.07298 c -1.30163,2.12258 0.75226,3.22679 0.9984,3.34936 l 0.99035,0.42194 c 1.88068,0.78128 6.12215,2.45765 9.25701,3.0569 5.74815,1.09882 23.54764,1.74991 25.46246,-0.13956 0.33642,-0.33151 0.75156,-1.54458 1.15428,-3.12068 l -1.22156,0.13324 c -5.87793,0.62241 -18.99866,1.74934 -25.47395,0.22388 -5.74747,-1.35399 -8.89391,-3.58149 -10.32858,-4.88155 -0.34899,0.29928 -0.63074,0.61713 -0.83841,0.95647 z"
       id="path311"
       fill="#ec7aa5" />
    <path
       d="m 451.60202,446.17646 c 8.84372,18.67697 7.05143,31.2221 -5.37686,37.63539 -18.02877,9.30327 -72.00078,-1.7 -72.00078,-1.7 0,0 0.96443,7.76479 0,14.69005 -2.51886,18.08707 -14.49834,48.22106 -17.0329,52.00746 -3.505,5.23617 -14.18194,1.28729 -14.38306,-3.07264 -0.20111,-4.35993 8.04882,-60.04357 9.30338,-70.66205 1.24809,-10.61913 5.18846,-12.1616 16.69727,-15.06441 2.64399,-0.66688 33.91077,-8.43718 36.77508,-8.2107 16.40737,1.29734 31.74666,-0.57703 46.01787,-5.6231 z"
       id="path313"
       fill="#524d87"
       style="fill:#214478" />
    <path
       d="m 437.06,480.92057 c -17.84909,2 -65.10381,-2.12256 -67.00167,-0.24926 -1.81193,1.78848 -1.50961,32.90408 -5.57419,50.91352 l 0.61815,-1.70065 c 3.82258,-10.61694 7.79177,-23.52975 9.12209,-33.08228 0.96443,-6.92526 0,-14.69005 0,-14.69005 l 2.17622,0.42124 c 10.25948,1.92713 53.95924,9.46564 69.82456,1.27876 8.59637,-4.43593 12.10429,-11.80544 10.52375,-22.10854 -2.72162,11.64544 -9.28457,18.05145 -19.68891,19.21726 z"
       id="path315"
       fill-opacity="0.0561079"
       fill="#ffffff" />
    <path
       d="m 437.65742,368.02073 c -12.36834,40.51668 -19.7858,97.95838 18.84258,87.9651 -20.51975,-37.78031 7.37556,-54.78428 1.05283,-74.31002 C 455.3911,375 437.81883,367.49698 437.65742,368.02073 Z"
       id="path318"
       fill="#ea5455" />
    <path
       d="m 451.60786,384.84548 c -13.9794,2.10955 -2.45574,26.51693 -7.07007,30.19386 -4.61433,3.67694 -12.64592,4.07363 -13.51195,6.32003 -1.74056,4.51482 6.67329,15.91191 25.24155,34.19128 l 0.23261,0.43518 c -17.87455,-32.91005 0.98814,-50.05506 1.96915,-66.83464 -2.07109,-3.24852 -4.35831,-4.68342 -6.86129,-4.30571 z"
       id="path320"
       fill-opacity="0.159856"
       fill="#000000" />
    <path
       d="m 414.5,369 c -4.71989,11.83833 -6.98867,21.12678 -9.10553,38.50339 -1.17683,9.64803 -1.47075,24.42683 -0.88179,44.33639 l -5.83269,1.14697 c -2.77981,-30.75936 -3.70513,-48.11932 -2.77594,-52.07989 2.33969,-9.9689 3.92473,-15.79341 7.01393,-24.90686 1.70159,-5.00195 11.58202,-7 11.58202,-7 z"
       id="path322"
       fill="#ea5455" />
    <path
       d="m 435.06,414.01741 c 0,0 -7.61557,-7.6253 -10.25299,-8.51021 -2.63742,-0.8849 -17.08423,-1.94795 -16.98655,0.0516 0.11071,2.14224 9.40718,2.01896 10.26679,3.07297 0.8596,1.05337 2.05496,9.25654 5.30452,10.06529 3.24305,0.80874 9.96569,3.2029 9.96569,3.2029 l 29.92428,15.46153 -3.18813,-15.46034 z"
       id="path325"
       fill="url(#linearGradient-15)"
       style="fill:url(#linearGradient-15)" />
    <path
       d="m 457.98081,381.73147 c 9.07703,12.81072 16.82678,32.32458 19.80151,39.93247 2.97472,7.60789 -0.026,19.08301 -13.1066,16.83022 -1.0383,-0.17868 -2.4019,-0.59665 -4.09082,-1.25391 -4.80965,-6.59308 -5.65323,-12.25344 -3.85825,-17.29328 1.12781,0.47607 1.69172,0.71411 1.69172,0.71411 0,0 -13.00078,-23.04422 -16.17539,-29.22178 -5.30277,-10.31689 7.74252,-20.99533 15.73783,-9.70783 z"
       id="path327"
       fill="#ea5455" />
    <path
       d="m 458.41837,420.66108 c 4.4024,2.15032 6.32676,2.75255 5.77309,1.80667 -0.55368,-0.94588 -3.3165,-3.04121 -8.28847,-6.28598 z"
       id="path329"
       fill-opacity="0.159856"
       fill="#000000" />
    <polygon
       id="polygon333"
       fill="#dbdbdb"
       points="91.661994,147.57972 79.661994,147.57972 79.661994,-1.1368684e-13 91.661994,-1.1368684e-13 "
       transform="translate(208.97588,441.55493)" />
    <polygon
       id="polygon335"
       fill="#efefef"
       points="85.661994,147.57972 77.661994,147.57972 77.661994,-1.1368684e-13 85.661994,-1.1368684e-13 "
       transform="translate(208.97588,441.55493)" />
    <polygon
       id="polygon337"
       fill="#dbdbdb"
       points="14.49865,147.57972 2.4986495,147.57972 2.4986495,-1.1368684e-13 14.49865,-1.1368684e-13 "
       transform="translate(208.97588,441.55493)" />
    <polygon
       id="polygon339"
       fill="#efefef"
       points="8.4986495,147.57972 0.49864952,147.57972 0.49864952,-1.1368684e-13 8.4986495,-1.1368684e-13 "
       transform="translate(208.97588,441.55493)" />
    <polygon
       id="polygon342"
       fill="#dbdbdb"
       points="322.63331,152.13465 310.63331,152.13465 310.63331,4.5549296 322.63331,4.5549296 "
       transform="translate(182.5,437)" />
    <polygon
       id="polygon344"
       fill="#efefef"
       points="316.63331,152.13465 308.63331,152.13465 308.63331,4.5549296 316.63331,4.5549296 "
       transform="translate(182.5,437)" />
    <polygon
       id="polygon346"
       fill="#dbdbdb"
       points="240.46997,152.13465 228.46997,152.13465 228.46997,4.5549296 240.46997,4.5549296 "
       transform="translate(182.5,437)" />
    <polygon
       id="polygon348"
       fill="#efefef"
       points="234.46997,152.13465 226.46997,152.13465 226.46997,4.5549296 234.46997,4.5549296 "
       transform="translate(182.5,437)" />
    <path
       d="m 293.94849,437 h 213.00347 c 0.92784,0 1.68,0.75216 1.68,1.68 v 15.64 c 0,0.92784 -0.75216,1.68 -1.68,1.68 H 293.94849 c -0.92784,0 -1.68,-0.75216 -1.68,-1.68 v -15.64 c 0,-0.92784 0.75216,-1.68 1.68,-1.68 z"
       id="path350"
       fill="#dbdbdb" />
    <path
       d="m 202.65588,437 h 212.09055 c 0.92784,0 1.68,0.75216 1.68,1.68 v 15.64 c 0,0.92784 -0.75216,1.68 -1.68,1.68 H 202.65588 c -0.92783,0 -1.68,-0.75216 -1.68,-1.68 v -15.64 c 0,-0.92784 0.75217,-1.68 1.68,-1.68 z"
       id="path352"
       fill="#dbdbdb" />
    <rect
       id="rect354"
       fill="#efefef"
       x="182.5"
       y="437"
       width="338"
       height="9.7605639" />
    <path
       d="m 258.85446,405.46929 v -4.18848 l 5.28342,-2.8e-4 1.2e-4,-2.22088 c 0,-1.22672 0.98563,-2.22116 2.20147,-2.22116 1.21584,0 2.20147,0.99444 2.20147,2.22116 v 4.63271 c 0,0.98137 -0.78851,1.77693 -1.76118,1.77693 z"
       id="path359"
       fill="#02b596" />
    <path
       d="m 244.19888,407.88084 v -3.99809 c 0,-1.22672 0.98563,-2.22117 2.20147,-2.22117 1.21584,0 2.20147,0.99445 2.20147,2.22117 l -2.7e-4,2.22064 h 2.64116 l 8.8e-4,-10.21683 c 0,-2.69877 2.16839,-4.88656 4.84324,-4.88656 2.67485,0 4.84324,2.18779 4.84324,4.88656 v 25.32126 h -9.68648 l -8.8e-4,-10.66238 -4.40206,8e-4 c -1.45901,0 -2.64177,-1.19334 -2.64177,-2.6654 z"
       id="path361"
       fill="#02d3af" />
    <path
       d="m 244.61821,414.26933 h 22.36416 l -1.59972,21.52037 c -0.0438,0.5887 -0.52995,1.04383 -1.11508,1.04383 H 247.333 c -0.58512,0 -1.07131,-0.45513 -1.11507,-1.04383 z"
       id="path364"
       fill="url(#linearGradient-16)"
       style="fill:url(#linearGradient-16)" />
    <path
       d="m 244.61821,414.26933 h 22.36416 c 0.61757,0 1.11821,0.50512 1.11821,1.12821 v 4.51284 c 0,0.62309 -0.50064,1.12821 -1.11821,1.12821 h -22.36416 c -0.61757,0 -1.11821,-0.50512 -1.11821,-1.12821 v -4.51284 c 0,-0.62309 0.50064,-1.12821 1.11821,-1.12821 z"
       id="path366"
       fill="#ffb3a4" />
    <path
       d="m 318.68087,434.51967 h 105.25618 c 0.83257,0 1.5075,0.67493 1.5075,1.5075 0,0.83257 -0.67493,1.5075 -1.5075,1.5075 H 318.68087 c -0.83257,0 -1.5075,-0.67493 -1.5075,-1.5075 0,-0.83257 0.67493,-1.5075 1.5075,-1.5075 z"
       id="path370"
       fill="#8f84ff"
       style="fill:#317bc8;fill-opacity:1" />
    <path
       d="m 390.00323,434.51967 h 33.93382 c 0.83257,0 1.5075,0.67493 1.5075,1.5075 0,0.83257 -0.67493,1.5075 -1.5075,1.5075 h -33.93382 c -0.83257,0 -1.5075,-0.67493 -1.5075,-1.5075 0,-0.83257 0.67493,-1.5075 1.5075,-1.5075 z"
       id="path372"
       fill="#317bc8" />
    <path
       d="m 315.58949,389 h 66.26828 c 1.81174,0 3.34121,1.3464 3.57094,3.14352 l 4.91508,38.44973 c 0.25211,1.97217 -1.14229,3.77531 -3.11446,4.02742 -0.15139,0.0193 -0.30386,0.029 -0.45648,0.029 h -66.26828 c -1.81174,0 -3.34122,-1.3464 -3.57094,-3.14352 l -4.91508,-38.44972 c -0.25211,-1.97218 1.14228,-3.77532 3.11446,-4.02742 0.15139,-0.0194 0.30386,-0.0291 0.45648,-0.0291 z"
       id="path374"
       fill="#317bc8" />
    <path
       d="m 315.58949,389 h 63.93409 c 1.81174,0 3.34122,1.3464 3.57094,3.14352 l 4.91508,38.44973 c 0.25211,1.97217 -1.14228,3.77531 -3.11446,4.02742 -0.15139,0.0193 -0.30386,0.029 -0.45648,0.029 h -63.93409 c -1.81174,0 -3.34122,-1.3464 -3.57094,-3.14352 l -4.91508,-38.44972 c -0.25211,-1.97218 1.14228,-3.77532 3.11446,-4.02742 0.15139,-0.0194 0.30386,-0.0291 0.45648,-0.0291 z"
       id="path376"
       fill="#b1a9ff"
       style="fill:#317bc8;fill-opacity:1" />
    <ellipse
       id="ellipse378"
       fill="#ffffff"
       transform="rotate(-37)"
       cx="30.296627"
       cy="539.40027"
       rx="4.6483059"
       ry="5.0749598" />
    <path
       d="M 439.5,426 H 485 c 3.03757,0 5.5,2.46243 5.5,5.5 0,3.03757 -2.46243,5.5 -5.5,5.5 h -45.5 c -0.55228,0 -1,-0.44772 -1,-1 v -9 c 0,-0.55228 0.44772,-1 1,-1 z"
       id="path381"
       fill="#f16b79" />
    <path
       d="m 439.5,428.2 h 26.03333 c 1.82254,0 3.3,1.47746 3.3,3.3 0,1.82254 -1.47746,3.3 -3.3,3.3 H 439.5 c -0.55228,0 -1,-0.44772 -1,-1 v -4.6 c 0,-0.55228 0.44772,-1 1,-1 z"
       id="path383"
       fill="#eaefff"
       fill-rule="nonzero" />
    <rect
       id="rect386"
       fill="#91d6ff"
       x="-673.5"
       y="391"
       width="131.19508"
       height="198.34753"
       transform="scale(-1,1)"
       style="fill:#65aaf0;fill-opacity:1" />
    <rect
       id="rect388"
       fill="#bfe7ff"
       x="-638.09814"
       y="391"
       width="95.793228"
       height="198.34753"
       transform="scale(-1,1)" />
    <path
       d="m 622.08831,524.62361 h -63.77354 c -4.24155,0 -7.68,3.43845 -7.68,7.68 v 41.01246 c 0,4.24154 3.43845,7.68 7.68,7.68 h 63.77354 c 4.24154,0 7.68,-3.43846 7.68,-7.68 v -41.01246 c 0,-4.24155 -3.43846,-7.68 -7.68,-7.68 z"
       id="path390"
       fill="#e3f4ff" />
    <path
       d="m 602.69631,524.62361 h -24.98954 v 6.59934 c 0,2.12077 1.71923,3.84 3.84,3.84 h 17.30954 c 2.12077,0 3.84,-1.71923 3.84,-3.84 z"
       id="path392"
       fill="#91d6ff"
       style="fill:#67a9f0;fill-opacity:1" />
    <path
       d="m 627.76831,410.22579 h -69.45354 c -4.24155,0 -7.68,3.43845 -7.68,7.68 v 30.13814 c 0,4.24155 3.43845,7.68 7.68,7.68 h 69.45354 c 1.10457,0 2,-0.89543 2,-2 v -41.49814 c 0,-1.10457 -0.89543,-2 -2,-2 z"
       id="path394"
       fill="#91d6ff"
       style="fill:#66a9f0;fill-opacity:1" />
    <path
       d="m 604.73446,399.35148 h -63.77354 c -4.24154,0 -7.68,3.43845 -7.68,7.67999 v 41.01246 c 0,4.24155 3.43846,7.68 7.68,7.68 h 63.77354 c 4.24155,0 7.68,-3.43845 7.68,-7.68 v -41.01246 c 0,-4.24154 -3.43845,-7.67999 -7.68,-7.67999 z"
       id="path396"
       fill="#e3f4ff" />
    <path
       d="m 622.08831,461.98754 h -63.77354 c -4.24155,0 -7.68,3.43845 -7.68,7.68 V 510.68 c 0,4.24155 3.43845,7.68 7.68,7.68 h 63.77354 c 4.24154,0 7.68,-3.43845 7.68,-7.68 v -41.01246 c 0,-4.24155 -3.43846,-7.68 -7.68,-7.68 z"
       id="path398"
       fill="#e3f4ff" />
    <path
       d="m 602.69631,461.98754 h -24.98954 v 6.59934 c 0,2.12078 1.71923,3.84 3.84,3.84 h 17.30954 c 2.12077,0 3.84,-1.71922 3.84,-3.84 z"
       id="path400"
       fill="#91d6ff"
       style="fill:#65aaf0;fill-opacity:1" />
    <path
       d="m 585.34246,399.35148 h -24.98954 v 6.59934 c 0,2.12077 1.71923,3.84 3.84,3.84 h 17.30954 c 2.12078,0 3.84,-1.71923 3.84,-3.84 z"
       id="path402"
       fill="#91d6ff"
       style="fill:#67aaf0;fill-opacity:1" />
    <polygon
       id="polygon405"
       fill="#317bc8"
       points="29.361763,20.676923 36.401763,20.676923 44,41.353846 36.96,41.353846 "
       transform="translate(583.5,349)" />
    <path
       d="m 594.70767,349 h 31.80418 c 0.44183,0 0.8,0.35817 0.8,0.8 0,0.056 -0.006,0.11177 -0.0175,0.16651 l -8.45953,39.75385 c -0.0786,0.36938 -0.40482,0.63349 -0.78247,0.63349 h -31.80418 c -0.44183,0 -0.8,-0.35818 -0.8,-0.8 0,-0.056 0.006,-0.11178 0.0175,-0.16651 l 8.45953,-39.75385 C 594.0038,349.2641 594.33002,349 594.70767,349 Z"
       id="path407"
       fill="#a7c3ff" />
    <path
       d="m 592.94767,349 h 31.80418 c 0.44183,0 0.8,0.35817 0.8,0.8 0,0.056 -0.006,0.11177 -0.0175,0.16651 l -8.45953,39.75385 c -0.0786,0.36938 -0.40482,0.63349 -0.78248,0.63349 h -31.80417 c -0.44183,0 -0.8,-0.35818 -0.8,-0.8 0,-0.056 0.006,-0.11178 0.0175,-0.16651 l 8.45952,-39.75385 C 592.2438,349.2641 592.57002,349 592.94767,349 Z"
       id="path409"
       fill="url(#linearGradient-17)"
       style="fill:url(#linearGradient-17)" />
    <use
       id="use414"
       fill="#b3ffeb"
       fill-rule="nonzero"
       xlink:href="#path-18"
       x="0"
       y="0"
       width="100%"
       height="100%"
       transform="translate(585.7,350.72308)" />
    <g
       transform="translate(439.57288,106.58583)"
       id="g422">
      <ellipse
         fill="#ffffff"
         cx="29.15"
         cy="3.7692308"
         rx="3.8499999"
         ry="3.7692308"
         id="ellipse416" />
      <ellipse
         fill="#6de9c9"
         cx="17.875"
         cy="32.03846"
         rx="17.875"
         ry="17.5"
         id="ellipse418" />
      <ellipse
         fill="#83f2d5"
         cx="45.924999"
         cy="26.923077"
         rx="21.174999"
         ry="20.461538"
         id="ellipse420" />
    </g>
    <path
       d="m 114.1163,306.29297 c -11.72349,-2.71317 -12.49558,-18.70491 -3.58252,-24.25218 -9.19195,-19.14903 12.06452,-38.16153 26.62501,-26.43621 9.54552,-4.06053 17.47797,11.78448 8.5958,24.09073 3.72413,21.13019 -3.85524,26.59213 -17.51822,26.82416 z"
       id="path428"
       fill="#422851" />
    <path
       d="m 114.26215,302.47369 c 0,0 5.70292,-1.33051 5.90076,-10.61697 0.19784,-9.28645 0.059,-12.45637 0.059,-12.45637 l 12.56184,-0.22526 c 0,0 0.13693,10.3496 0.13889,14.09309 0.005,10.0545 7.05489,9.20551 7.05489,9.20551 0,0 -1.46549,8.15257 -12.84804,8.78863 -8.88723,0.4974 -12.8673,-8.78863 -12.8673,-8.78863 z"
       id="path430"
       fill="url(#linearGradient-20)"
       style="fill:url(#linearGradient-20)" />
    <path
       d="m 117.29356,274.76309 c -5.60381,-0.21549 -4.68977,7.93709 1.13155,7.92603 0,0 3.38111,11.58123 15.11988,11.58123 9.53339,0 10.15356,-13.49814 10.24003,-16.19085 0.093,-2.87109 0.10482,-12.30339 0.10482,-12.30339 l -26.81443,-0.0124 z"
       id="path432"
       fill="url(#linearGradient-21)"
       style="fill:url(#linearGradient-21)" />
    <path
       d="m 131.2818,286.49018 c 0,0 2.79602,2.35277 6.03424,0.14966"
       id="path434"
       stroke="#f77b7b"
       stroke-width="1.5"
       stroke-linecap="round" />
    <path
       d="m 133.12741,289.21476 c 0.87,0.3989 1.70746,0.42796 2.45515,0.0302"
       id="path436"
       stroke="#f49494"
       stroke-linecap="round" />
    <path
       d="m 117.86474,279.14748 c 0.0576,-1.30774 -0.34381,-2.34631 -1.68592,-2.555"
       id="path438"
       stroke="#f77b7b"
       stroke-linecap="round" />
    <path
       d="m 116.40694,273.7558 c 0,0 3.07153,4.09588 3.6937,4.11764 0.62217,0.0218 0.84004,-5.3269 0.84004,-5.3269 3.76782,-0.28605 13.3034,-2.17312 15.64086,-6.56929 1.63465,3.87893 4.75947,5.60188 6.81259,5.27102 l 0.38913,8.24079 0.95834,-16.56749 h -29.08593 z"
       id="path440"
       fill="#422851" />
    <path
       d="m 189.55179,307.32895 c 0,0 -1.67375,-9.34089 -1.07195,-11.23242 0.51403,-1.63476 5.3723,-3.99212 5.3723,-3.99212 0,0 8.45024,-13.36816 10.29952,-12.00711 1.50449,1.10365 -4.40065,10.95933 -4.40065,10.95933 0,0 5.38484,5.65765 5.30961,8.18639 -0.0752,2.52936 -8.78875,10.44642 -8.78875,10.44642 z"
       id="path444"
       fill="url(#linearGradient-22)"
       style="fill:url(#linearGradient-22)" />
    <path
       d="m 194.03393,291.97007 c 0,0 3.74243,-0.50977 4.33796,0.65666 0.50777,0.9938 -2.60152,3.81253 -2.60152,4.60485 0,0.79231 0.0444,6.78967 0.29463,6.84416 0.25019,0.0545 3.7487,-9.78662 3.00272,-11.86837 -0.61434,-1.70884 -5.03379,-0.2373 -5.03379,-0.2373 z"
       id="path446"
       fill="#f28585" />
    <path
       d="m 145.05009,306.22404 c -5.61678,-2.33538 -12.41835,4.36817 -8.27472,10.76723 6.61978,10.23172 31.05718,37.09707 42.32208,37.13667 10.11773,0.0351 19.41236,-40.20907 19.19922,-43.41645 -0.21314,-3.20801 -8.42517,-7.22148 -11.40909,-4.95578 -2.99018,2.2657 -12.44969,28.81306 -12.44969,28.81306 0,0 -23.68326,-25.97043 -29.3878,-28.34473 z"
       id="path449"
       fill="#317bc8"
       style="fill:#317bc8;fill-opacity:1" />
    <path
       d="m 174.43789,334.56877 c 2.13117,3.66869 3.29506,5.22875 3.49168,4.68017 0.19662,-0.54857 -0.5807,-3.18718 -2.33197,-7.9158 z"
       id="path451"
       fill-opacity="0.302803"
       fill="#000000" />
    <path
       d="m 137.84644,562.70903 c 0,0 -1.11994,9.20556 3.05662,12.72149 4.17656,3.51531 -11.93569,2.24639 -11.93569,2.24639 l -0.11756,-15.11453 z"
       id="path455"
       fill="url(#linearGradient-23)"
       style="fill:url(#linearGradient-23)" />
    <path
       d="m 128.81362,570.86781 c 1.4355,0.0771 1.20657,4.39212 3.13088,4.21191 1.92431,-0.18083 5.178,-4.4819 7.96856,-3.03526 2.89575,1.50443 18.76763,11.55727 19.70194,14.14109 1.04569,2.88023 -5.72344,3.09523 -10.56206,2.8852 -4.84482,-0.21066 -7.0785,-2.39118 -9.42975,-2.33712 -2.35744,0.0547 -2.91432,1.52369 -4.67775,1.92823 -1.78819,0.41137 -6.26175,0.34923 -6.67632,-0.93771 -0.43312,-1.33665 -0.88481,-16.93401 0.5445,-16.85634 z"
       id="path457"
       fill="#222d4e" />
    <path
       d="m 112.5,375 c 0,0 9.63019,92.71931 10.416,101.19117 0.78581,8.47187 -0.78581,14.6062 -1.43025,23.35657 -0.64444,8.75036 2.45737,63.78394 2.45737,63.78394 4.56019,2.75471 9.98663,3.29534 16.88569,0.0833 0,0 6.336,-68.55882 6.27413,-84.1742 -0.0371,-9.31495 0.92812,-103.19495 0.92812,-103.19495 z"
       id="path459"
       fill="#2b256a"
       style="fill:#ff7f2a;fill-opacity:1" />
    <path
       d="m 127.88781,476.95237 c 0.79099,5.86518 -1.33385,16.97533 -6.37452,33.33045 l -0.0635,-2.68914 c -0.072,-3.5557 -0.0742,-6.32853 0.0237,-7.86725 l 0.0122,-0.17869 c 0.62296,-8.45869 2.11232,-14.47284 1.5011,-22.51699 l -0.13222,-1.48665 c -0.33021,-3.42834 -1.35651,-13.48562 -2.64245,-25.9911 l 0.70562,2.04349 c 3.90543,11.40603 6.22856,19.85802 6.97001,25.35588 z"
       id="path461"
       fill-opacity="0.0771689"
       fill="#ffffff" />
    <path
       d="m 141.59438,573.06839 -0.64732,0.9876 c -0.30276,0.4619 -0.17374,1.08178 0.28816,1.38454 0.013,0.009 0.0262,0.0168 0.0396,0.0247 l 9.56612,5.65034 c 0.29337,0.17327 0.65477,0.18526 0.95897,0.0318 l 1.27687,-0.64413 v 0 c -3.72013,-2.70601 -7.4468,-5.12692 -11.48242,-7.43485 z"
       id="Path-14"
       fill-opacity="0.540975"
       fill="#ffffff" />
    <polygon
       id="polygon466"
       fill="url(#linearGradient-24)"
       points="13.459315,192.2037 14.268019,206.2335 3.9007949,206.50837 5.8493867,192.2037 "
       style="fill:url(#linearGradient-24)"
       transform="translate(83.5,372)" />
    <path
       d="m 87.303507,573.36744 c 7.347292,5.54083 10.166569,-1.39203 10.792858,-0.70484 1.191775,1.30751 3.447635,14.32792 2.219375,16.15299 -1.082324,1.61644 -15.815336,1.64368 -16.630121,0.12134 -1.070165,-2.01575 2.800764,-16.18571 3.617888,-15.56949 z"
       id="path468"
       fill="#222d4e" />
    <path
       d="m 91.564132,576.96727 h 2.074354 c 0.489934,0 0.90772,0.35495 0.986866,0.83845 l 0.616007,3.76316 c 0.08922,0.54503 -0.28029,1.05919 -0.825321,1.14841 -0.0534,0.009 -0.107429,0.0131 -0.161544,0.0131 h -3.30637 c -0.552285,0 -1,-0.44771 -1,-1 0,-0.0541 0.0044,-0.10814 0.01313,-0.16154 l 0.616007,-3.76316 c 0.07915,-0.4835 0.496932,-0.83845 0.986866,-0.83845 z"
       id="path470"
       fill-opacity="0.540975"
       fill="#ffffff" />
    <path
       d="m 106.5908,372 c 0,0 -10.324935,9.30485 -13.035635,22.67291 -4.51872,22.28447 -2.244619,63.44242 -2.37839,72.4675 -0.12769,9.02509 -3.373023,14.47054 -5.113686,27.23126 -1.740664,12.76073 -0.01824,69.79023 -0.01824,69.79023 4.615087,2.78466 9.619325,2.98401 15.122163,-0.16715 L 133.48478,374.9766 Z"
       id="path472"
       fill="#38308b"
       style="fill:#ff7f2a;fill-opacity:1" />
    <path
       d="m 99.712556,380.30473 4.033474,0.55524 c -3.54375,6.77857 -5.334084,22.23677 -5.370998,46.37462 l -5.83e-4,0.76513 c 0,36.49622 -6.588336,49.35283 -9.238921,65.06433 l -0.0791,0.477 c -1.587648,9.74342 -2.776903,25.35648 -3.567765,46.83919 l -0.0804,-5.326 c -0.220056,-16.22989 -0.224928,-34.23307 0.654834,-40.68257 1.740663,-12.76072 4.985996,-18.20617 5.113686,-27.23126 l 0.0058,-0.89764 c -0.0024,-10.57993 -2.010559,-49.95393 2.3726,-71.56986 1.144809,-5.64573 3.647712,-10.56674 6.157391,-14.36818 z"
       id="path474"
       fill-opacity="0.0771689"
       fill="#ffffff" />
    <path
       d="m 95.5,309.70312 c 0,0 9.88775,33.13353 10.18059,39.40546 0.29283,6.27255 -8.087153,24.70736 -6.660375,29.36688 3.289685,10.76747 45.289275,15.40391 49.793905,0.91906 1.92522,-6.18526 -1.77568,-12.8182 0.0187,-20.77798 1.78814,-7.95978 7.0424,-19.78812 2.9657,-30.90883 -4.07669,-11.12071 -2.98439,-21.4091 -5.90025,-23.35371 -2.91586,-1.94462 -9.73199,-4.00982 -9.73199,-4.00982 -3.31461,4.88149 -14.50453,4.81041 -19.84404,-0.34418 0,0 -13.26467,2.57511 -20.82223,9.70312 z"
       id="path478"
       fill="#317bc8"
       style="fill:#317bc8;fill-opacity:1" />
    <path
       d="m 104.36065,315.06945 c 6.59093,10.46754 6.57112,28.69249 10.11093,31.07934 3.5398,2.38684 17.31706,0.0446 17.31706,1.93478 0,1.89023 -19.03931,19.2131 -15.91374,27.49424 1.63661,4.33616 1.19267,8.21539 -1.33182,11.63768 l -0.82403,-0.1797 c -7.50164,-1.69662 -13.53263,-4.74322 -14.698835,-8.56033 -1.426778,-4.65952 6.953205,-23.09433 6.660375,-29.36688 -0.24778,-5.30687 -7.364925,-29.845 -9.54927,-37.27065 1.930351,-3.493 4.6734,-2.41591 8.22933,3.23152 z"
       id="path480"
       fill-opacity="0.0564904"
       fill="#000000" />
    <path
       d="m 125.21717,369.03889 c 0,0 6.43385,-2.852 8.51619,-2.84386 2.08233,0.008 3.67506,0.076 3.67506,0.076 l 0.006,2.88369 c 0,0 10.57186,0.96113 11.68739,0.92348 1.12173,-0.037 -4.0779,7.78375 -7.57944,9.20017 -3.86719,1.5639 -17.01191,-3.07509 -17.01191,-3.07509 z"
       id="path484"
       fill="url(#linearGradient-25)"
       style="fill:url(#linearGradient-25)" />
    <path
       d="m 96.064523,308.76143 c -8.10622,5.91359 -28.799392,56.65576 -18.97029,63.7724 8.378906,6.0686 43.976867,6.85997 46.610767,4.92391 2.19388,-1.61662 3.42717,-6.53551 1.36343,-9.22276 -2.73926,-3.58343 -33.62718,-8.75837 -33.62718,-8.75837 0,0 11.10577,-26.56817 13.4236,-31.22537 7.95129,-15.98546 2.68348,-27.86536 -8.800327,-19.48981 z"
       id="path486"
       fill="#317bc8"
       style="fill:#317bc8;fill-opacity:1" />
    <path
       d="m 91.484632,359.44523 c -2.356815,3.69196 -3.292625,5.58388 -2.807429,5.67574 0.485195,0.0919 2.309301,-1.63185 5.472318,-5.17117 z"
       id="path488"
       fill-opacity="0.302803"
       fill="#000000" />
  </g>
</svg>
